<svg xmlns="http://www.w3.org/2000/svg" width="80" height="80" viewBox="0 0 80 80" fill="none"><circle cx="40" cy="40" r="40" fill="#FFE1C4"></circle><path d="M58.1895 22.4028C58.1895 22.4028 55.463 12.6464 52.9183 12.0141C50.3736 11.4721 25.6539 26.739 24.5633 29.3587C23.5636 32.0688 24.3815 34.7789 24.3815 34.7789L58.1895 22.4028Z" fill="#F79028"></path><path d="M55.7351 59.2602C55.7351 59.2602 52.8269 70.2813 35.832 67.5712C40.5579 64.9514 41.2849 61.88 41.0123 59.0795C40.3761 51.6719 46.4652 50.6782 46.4652 50.6782L55.7351 59.2602Z" fill="#F79028"></path><path d="M55.9162 23.4866C55.9162 23.4866 53.4624 14.5433 51.0995 14.0916C48.7366 13.5496 26.1979 27.4614 25.2891 29.9005C24.3803 32.3396 25.1074 34.869 25.1074 34.869L55.9162 23.4866Z" fill="#FAA427"></path><path d="M55.1903 20.8671C55.1903 24.9322 52.6456 28.2747 52.6456 28.2747C52.6456 28.2747 53.6453 24.5709 53.6453 20.5057C53.6453 16.4406 52.5547 13.4595 52.5547 13.4595C52.5547 13.4595 55.1903 16.8019 55.1903 20.8671Z" fill="#FDB525"></path><path d="M51.283 22.9447C51.283 27.0099 48.7383 30.3523 48.7383 30.3523C48.7383 30.3523 49.8289 26.6485 49.8289 22.5834C49.8289 18.5182 48.7383 15.5371 48.7383 15.5371C48.7383 15.5371 51.283 18.7892 51.283 22.9447Z" fill="#FDB525"></path><path d="M47.0994 25.2035C47.0994 29.2687 44.5547 32.6111 44.5547 32.6111C44.5547 32.6111 45.6453 28.9073 45.6453 24.8422C45.6453 20.777 44.5547 17.7959 44.5547 17.7959C44.5547 17.7959 47.0994 21.1384 47.0994 25.2035Z" fill="#FDB525"></path><path d="M42.9197 28.2748C42.9197 32.3399 40.375 35.6824 40.375 35.6824C40.375 35.6824 41.4656 31.9786 41.4656 27.9135C41.4656 23.8483 40.375 20.8672 40.375 20.8672C40.375 20.8672 42.9197 24.2096 42.9197 28.2748Z" fill="#FDB525"></path><path d="M37.9216 30.2621C37.9216 34.3273 35.377 37.6697 35.377 37.6697C35.377 37.6697 36.4675 33.9659 36.4675 29.9008C36.4675 25.8356 35.377 22.8545 35.377 22.8545C35.377 22.8545 37.9216 26.197 37.9216 30.2621Z" fill="#FDB525"></path><path d="M33.2869 33.6947C33.2869 37.7599 30.7422 41.1023 30.7422 41.1023C30.7422 41.1023 31.8328 37.3985 31.8328 33.3334C31.8328 29.2682 30.7422 26.2871 30.7422 26.2871C30.7422 26.2871 33.2869 29.5392 33.2869 33.6947Z" fill="#FDB525"></path><path d="M29.5603 35.682C29.5603 39.7472 27.0156 43.0896 27.0156 43.0896C27.0156 43.0896 28.1062 39.3858 28.1062 35.3207C28.1062 31.2555 27.0156 28.2744 27.0156 28.2744C27.0156 28.2744 29.5603 31.6169 29.5603 35.682Z" fill="#FDB525"></path><path d="M18.5641 34.4175C18.5641 34.4175 16.3829 32.9722 15.2923 30.8944C13.3838 27.1906 14.2926 25.2935 11.9297 21.7704C9.56679 18.2473 3.84125 18.3376 3.84125 18.3376C3.84125 18.3376 6.5677 21.6801 5.74976 22.6738C4.93183 23.6675 3.75037 24.1192 3.84125 25.6549C3.93213 27.1906 5.74976 29.0877 5.65888 29.9007C5.568 30.7137 4.38654 31.8881 3.84125 32.9722C3.29596 34.0562 4.93183 34.8692 4.93183 34.8692C4.93183 34.8692 3.5686 36.676 4.38654 37.76C5.20447 38.844 4.47742 41.6445 3.75037 42.6382C2.93243 43.6319 4.29566 44.9869 3.29596 46.071C2.38714 47.155 0.296868 43.6319 0.296868 43.6319C0.296868 43.6319 -0.79371 47.426 1.20568 49.2328C3.20508 51.0395 5.02271 50.2265 5.20447 51.0395C5.47712 51.7622 3.65949 55.3757 3.65949 55.3757C3.65949 55.3757 7.47651 56.4597 11.0209 51.5815C14.5653 46.7033 14.3835 39.2054 17.837 39.0247C21.3814 38.844 18.5641 34.4175 18.5641 34.4175Z" fill="#FAA427"></path><path d="M80.0002 45.8903C80.0002 51.2201 49.464 63.6866 39.9215 60.7958C27.6524 57.0017 29.4701 42.9995 17.5646 38.9343C14.202 37.8503 11.5664 36.5856 11.5664 36.5856C11.5664 36.5856 15.2925 34.0562 17.5646 33.9658C28.016 33.3335 44.8291 17.8859 59.1883 21.409C69.0035 23.8481 80.0002 40.4701 80.0002 45.8903Z" fill="#FFC820"></path><path d="M63.0043 55.7372C57.915 56.8213 52.6438 57.9956 47.4636 57.0923C42.9195 56.2792 39.2842 53.7498 36.2852 50.317C33.1952 46.8842 30.1961 44.3548 26.2882 41.8254C23.9253 40.2896 21.5623 38.8443 19.2903 37.3085C17.7453 36.3148 15.8368 34.9598 13.9283 35.7728C13.2921 36.0438 12.5651 36.3148 11.838 36.4052C11.7471 36.4955 11.6562 36.5858 11.6562 36.5858C11.6562 36.5858 14.2009 37.8506 17.6544 38.9346C29.5599 42.9094 27.6514 57.0019 40.0113 60.7961C45.4642 62.4221 57.6423 59.17 67.094 55.0145C65.7308 55.1952 64.3676 55.4662 63.0043 55.7372Z" fill="#FDB525"></path><path d="M38.9209 28.0941C46.1006 27.281 54.2799 25.2936 61.1869 28.0037C68.0939 30.7138 73.4559 36.134 77.7273 42.0059C78.4544 42.9996 79.1814 44.0836 79.9085 45.0774C79.0906 39.1151 68.6392 23.7579 59.1875 21.4091C50.2811 19.2411 40.375 24.3902 31.6504 28.7264C34.1042 28.5457 36.4671 28.3651 38.9209 28.0941Z" fill="#FFDA19"></path><path d="M16.5639 34.1465C14.3827 34.7788 11.6562 36.5856 11.6562 36.5856C11.6562 36.5856 13.383 37.3986 15.9277 38.302C15.5642 36.9469 15.655 35.5015 16.5639 34.1465Z" fill="#FFC820"></path><path d="M12.2922 27.2812C12.2922 31.3463 15.473 33.6951 15.473 33.6951C15.473 33.6951 10.929 31.3463 10.929 27.2812C10.929 23.216 6.20312 19.0605 6.20312 19.0605C6.20312 19.0605 12.2922 23.216 12.2922 27.2812Z" fill="#FDB525"></path><path d="M10.4755 28.365C10.4755 32.4302 14.7469 34.2369 14.7469 34.2369C14.7469 34.2369 9.8393 33.2432 9.8393 29.0877C9.8393 24.9323 6.29492 22.4932 6.29492 22.4932C6.29492 22.4932 10.4755 24.2999 10.4755 28.365Z" fill="#FDB525"></path><path d="M9.47688 30.9847C10.2948 34.5078 13.203 34.7788 13.203 34.7788C13.203 34.7788 9.20423 35.8628 8.47718 31.9784C7.75013 27.9132 4.66016 25.3838 4.66016 25.3838C4.66016 25.3838 8.56806 27.0098 9.47688 30.9847Z" fill="#FDB525"></path><path d="M7.56763 33.695C8.38557 37.2181 11.2938 36.4954 11.2938 36.4954C11.2938 36.4954 7.29499 38.6635 6.56793 34.6887C5.84088 30.6235 5.75 30.2622 5.75 30.2622C5.75 30.2622 6.65882 29.7202 7.56763 33.695Z" fill="#FDB525"></path><path d="M6.11445 45.3485C6.11445 49.4137 2.93359 48.691 2.93359 48.691C2.93359 48.691 7.38679 49.4137 7.38679 45.3485C7.38679 41.2834 13.2941 37.6699 13.2941 37.6699C13.2941 37.6699 6.11445 41.2834 6.11445 45.3485Z" fill="#FDB525"></path><path d="M7.8404 46.4321C7.8404 50.4972 5.56836 50.5875 5.56836 50.5875C5.56836 50.5875 8.56745 51.3102 8.56745 47.2451C8.56745 43.1799 15.1109 38.3921 15.1109 38.3921C15.1109 38.3921 7.8404 42.3669 7.8404 46.4321Z" fill="#FDB525"></path><path d="M8.83943 49.0518C8.02149 52.5749 5.11328 52.9363 5.11328 52.9363C5.11328 52.9363 9.11207 54.0203 9.83912 50.1358C10.5662 46.0707 15.9282 39.2051 15.9282 39.2051C15.9282 39.2051 9.74824 45.077 8.83943 49.0518Z" fill="#FDB525"></path><path d="M6.29535 40.1989C5.47742 43.722 4.20508 42.638 4.20508 42.638C4.20508 42.638 6.65888 44.0834 7.38593 40.1085C8.11299 36.0434 11.4756 37.3984 11.4756 37.3984C11.4756 37.3984 7.20417 36.2241 6.29535 40.1989Z" fill="#FDB525"></path><path d="M58.1891 36.1338C58.1891 36.1338 54.1903 46.3418 55.9171 48.2389C57.6438 50.136 67.0046 53.0268 70.549 52.2137C74.0934 51.4007 75.6384 50.407 75.6384 50.407C75.6384 50.407 72.5484 51.762 69.004 51.22C65.4596 50.678 57.5529 48.8713 57.3712 46.8839C57.0985 44.2641 58.1891 36.1338 58.1891 36.1338Z" fill="#F79028"></path><path d="M65.0939 41.012C66.8004 41.012 68.1839 39.6369 68.1839 37.9406C68.1839 36.2443 66.8004 34.8691 65.0939 34.8691C63.3873 34.8691 62.0039 36.2443 62.0039 37.9406C62.0039 39.6369 63.3873 41.012 65.0939 41.012Z" fill="#F79028"></path><path d="M67.7321 37.4889C67.7321 38.9343 66.5506 40.1087 65.0965 40.1087C63.6424 40.1087 62.4609 38.9343 62.4609 37.4889C62.4609 36.0435 63.6424 34.8691 65.0965 34.8691C66.5506 34.8691 67.7321 36.0435 67.7321 37.4889Z" fill="#4C301F"></path><path d="M66.0054 37.3083C66.0054 37.9406 65.4601 38.3923 64.9148 38.3923C64.2786 38.3923 63.8242 37.8503 63.8242 37.3083C63.8242 36.6759 64.3695 36.2242 64.9148 36.2242C65.4601 36.1339 66.0054 36.6759 66.0054 37.3083Z" fill="white"></path><path d="M66.7314 36.1338C66.7314 36.5855 66.3679 36.8565 66.0044 36.8565C65.55 36.8565 65.2773 36.4952 65.2773 36.1338C65.2773 35.6821 65.6409 35.4111 66.0044 35.4111C66.4588 35.4111 66.7314 35.7725 66.7314 36.1338Z" fill="white"></path><path d="M47.9193 55.3758C47.1923 53.298 50.5549 50.1362 50.5549 50.1362C50.5549 50.1362 50.1914 52.3946 51.0093 54.4724C51.7364 56.5501 53.3722 57.6342 53.3722 57.6342C53.3722 57.6342 48.7373 57.4535 47.9193 55.3758Z" fill="#FDB525"></path><path d="M45.9194 44.6257C45.8285 42.4576 50.0999 40.5605 50.0999 40.5605C50.0999 40.5605 49.1003 42.548 49.1003 44.716C49.1911 46.8841 50.2817 48.5102 50.2817 48.5102C50.2817 48.5102 45.9194 46.7938 45.9194 44.6257Z" fill="#FDB525"></path><path d="M41.6479 50.6779C41.557 48.5099 45.9193 46.6128 45.9193 46.6128C45.9193 46.6128 44.8287 48.6002 44.9196 50.8586C45.0105 53.0267 46.1011 54.6528 46.1011 54.6528C46.1011 54.6528 41.6479 52.9364 41.6479 50.6779Z" fill="#FDB525"></path><path d="M45.9196 34.779C46.1922 32.6109 50.6454 31.3462 50.6454 31.3462C50.6454 31.3462 49.2822 33.1529 49.0096 35.4113C48.7369 37.5794 49.6457 39.2958 49.6457 39.2958C49.6457 39.2958 45.6469 36.9471 45.9196 34.779Z" fill="#FDB525"></path><path d="M40.5563 40.0187C40.8289 37.8507 45.2821 36.5859 45.2821 36.5859C45.2821 36.5859 43.9189 38.3927 43.6463 40.6511C43.3736 42.8192 44.2824 44.5356 44.2824 44.5356C44.2824 44.5356 40.2837 42.1868 40.5563 40.0187Z" fill="#FDB525"></path><path d="M35.5602 34.3273C35.8329 32.1592 40.2861 30.8945 40.2861 30.8945C40.2861 30.8945 38.9228 32.7013 38.6502 34.9597C38.3775 37.1278 39.2864 38.8442 39.2864 38.8442C39.2864 38.8442 35.2876 36.4954 35.5602 34.3273Z" fill="#FDB525"></path><path d="M29.652 38.5729C29.9247 36.4048 34.3778 35.1401 34.3778 35.1401C34.3778 35.1401 33.0146 36.9469 32.742 39.2053C32.4693 41.3734 33.3782 43.0898 33.3782 43.0898C33.3782 43.0898 29.3794 40.741 29.652 38.5729Z" fill="#FDB525"></path><path d="M35.5602 44.6257C35.8329 42.4576 40.2861 41.1929 40.2861 41.1929C40.2861 41.1929 38.9228 42.9996 38.6502 45.258C38.3775 47.4261 39.2864 49.1425 39.2864 49.1425C39.2864 49.1425 35.2876 46.7937 35.5602 44.6257Z" fill="#FDB525"></path></svg>