<svg width="14" height="14" viewBox="0 0 14 14" fill="none" xmlns="http://www.w3.org/2000/svg">
<g id="paw-solid (1) 1" clip-path="url(#clip0_9_934)">
<path id="Vector" d="M6.19336 2.54025C6.58438 3.7133 6.18516 4.89729 5.30195 5.18713C4.41875 5.47697 3.38516 4.76057 2.99414 3.58752C2.60313 2.41447 3.00235 1.23049 3.88555 0.940645C4.76875 0.650801 5.80235 1.36721 6.19336 2.54025ZM2.74531 5.43049C3.26211 6.31643 3.13633 7.34729 2.46641 7.7301C1.79649 8.11291 0.833986 7.70549 0.319924 6.81955C-0.194139 5.93361 -0.0738263 4.90275 0.596096 4.51994C1.26602 4.13713 2.22852 4.54455 2.74258 5.43049H2.74531ZM1.89219 10.9703C3.325 7.10666 5.87071 6.12502 7 6.12502C8.1293 6.12502 10.675 7.10666 12.1078 10.9703C12.2063 11.2356 12.25 11.5199 12.25 11.8043V11.8481C12.25 12.5535 11.6785 13.125 10.973 13.125C10.6586 13.125 10.3469 13.0867 10.0434 13.0102L7.63711 12.4086C7.21875 12.3047 6.78125 12.3047 6.36289 12.4086L3.95664 13.0102C3.65313 13.0867 3.34141 13.125 3.02695 13.125C2.32149 13.125 1.75 12.5535 1.75 11.8481V11.8043C1.75 11.5199 1.79375 11.2356 1.89219 10.9703ZM11.5336 7.7301C10.8637 7.34729 10.7379 6.31643 11.2547 5.43049C11.7715 4.54455 12.7313 4.13713 13.4012 4.51994C14.0711 4.90275 14.1969 5.93361 13.6801 6.81955C13.1633 7.70549 12.2035 8.11291 11.5336 7.7301ZM8.4793 5.18713C7.5961 4.89729 7.19688 3.7133 7.58789 2.54025C7.97891 1.36721 9.0125 0.650801 9.8957 0.940645C10.7789 1.23049 11.1781 2.41447 10.7871 3.58752C10.3961 4.76057 9.3625 5.47697 8.4793 5.18713Z" fill="#FF782C"/>
</g>
<defs>
<clipPath id="clip0_9_934">
<rect width="14" height="14" fill="white"/>
</clipPath>
</defs>
</svg>
