<svg width="29" height="29" viewBox="0 0 29 29" fill="none" xmlns="http://www.w3.org/2000/svg">
<g id="paw-solid (1) 2" clip-path="url(#clip0_10_972)">
<path id="Vector" d="M16.8246 8.11162C16.4449 9.92709 15.033 11.1596 13.6695 10.8679C12.3061 10.5761 11.5081 8.86679 11.8877 7.05132C12.2674 5.23585 13.6793 4.00331 15.0428 4.29508C16.4062 4.58685 17.2042 6.29615 16.8246 8.11162ZM10.1728 9.25141C10.173 10.7899 9.2311 12.0306 8.07377 12.0205C6.91644 12.0103 5.97709 10.7551 5.98039 9.21871C5.98369 7.6823 6.91851 6.43743 8.07584 6.44758C9.23317 6.45773 10.1725 7.71293 10.1692 9.24934L10.1728 9.25141ZM4.88138 15.7852C9.65739 11.8614 13.6978 12.5129 15.1611 13.3662C16.6245 14.2195 19.1814 17.415 18.1187 23.5042C18.0458 23.9222 17.8876 24.3238 17.6728 24.6923L17.6397 24.749C17.1066 25.6631 15.9343 25.9718 15.0202 25.4388C14.6127 25.2012 14.2377 24.916 13.9023 24.5875L11.2388 21.9898C10.7752 21.5391 10.2083 21.2085 9.5877 21.027L6.01517 19.9884C5.56402 19.8582 5.13118 19.6723 4.72371 19.4347C3.80957 18.9016 3.50087 17.7293 4.03392 16.8152L4.06698 16.7585C4.28185 16.39 4.55341 16.0546 4.88138 15.7852ZM19.8229 18.8716C19.2441 17.8694 19.86 16.4386 21.1991 15.6811C22.5382 14.9236 24.0897 15.1209 24.6685 16.1231C25.2473 17.1253 24.6314 18.5562 23.2923 19.3137C21.9533 20.0711 20.4017 19.8739 19.8229 18.8716ZM17.7867 13.2687C16.8612 12.2257 17.2386 10.3899 18.6316 9.16533C20.0246 7.94076 21.9052 7.79343 22.8307 8.83636C23.7561 9.87928 23.3788 11.7151 21.9858 12.9397C20.5927 14.1643 18.7121 14.3116 17.7867 13.2687Z" fill="#FF782C"/>
</g>
<defs>
<clipPath id="clip0_10_972">
<rect width="21" height="21" fill="white" transform="translate(10.7187 0.140259) rotate(30.2473)"/>
</clipPath>
</defs>
</svg>
