<svg xmlns="http://www.w3.org/2000/svg" width="80" height="80" viewBox="0 0 80 80" fill="none"><circle cx="40" cy="40" r="40" fill="#CA9C72"></circle><path d="M59.8174 16.0532C62.9498 22.0495 75.5688 40.5752 42.0077 40.5752C11.7579 40.5752 17.2172 27.0613 19.6336 18.5591C21.513 12.1154 30.6417 2.0918 40.2178 2.0918C49.7044 2.0918 55.5216 7.73006 59.8174 16.0532Z" fill="#603913"></path><path d="M61.7861 51.4934C65.0975 58.2951 67.6929 76.9999 40.9335 76.9999C13.5476 76.9999 15.1586 60.8905 18.8279 51.4934C22.7657 41.2909 29.9254 33.3257 40.128 33.3257C50.3306 33.3257 57.2218 42.0963 61.7861 51.4934Z" fill="#512E08"></path><path d="M53.5524 55.6997C55.6108 61.4275 57.2218 76.9998 40.665 76.9998C23.7502 76.9998 24.7346 63.4859 26.972 55.6997C29.4779 47.1081 33.8632 40.4854 40.2175 40.4854C46.4822 40.4854 50.778 47.824 53.5524 55.6997Z" fill="#F4D49D"></path><path d="M59.5484 3.07577C58.4744 2.71778 51.2252 6.29763 50.4198 7.99806C49.5248 9.96698 56.058 15.1578 57.49 14.7998C59.7274 14.3523 59.5484 12.0254 59.9959 9.60899C60.8908 6.11864 60.9803 3.61274 59.5484 3.07577Z" fill="#603913"></path><path d="M59.2795 4.329C58.5635 4.95548 55.5207 7.28238 54.8047 8.98281C55.2522 9.2513 55.6997 9.51979 56.1471 10.0568C57.7581 8.62483 59.4585 9.51979 59.4585 9.51979C59.4585 9.51979 57.8476 9.2513 56.4156 10.7727C58.2056 10.2358 59.1005 10.8622 59.1005 10.8622C59.1005 10.8622 56.8631 11.3097 56.9526 11.4887C57.4896 12.1152 57.9371 13.0101 58.295 13.7261C60.085 13.0996 60.3535 3.34455 59.2795 4.329Z" fill="#FAB38E"></path><path d="M20.8864 3.07577C21.9604 2.71778 29.2096 6.29763 30.015 7.99806C30.91 9.96698 24.3768 15.1578 22.9448 14.7998C20.7074 14.3523 20.8864 12.0254 20.4389 9.60899C19.6335 6.11864 19.544 3.61274 20.8864 3.07577Z" fill="#603913"></path><path d="M21.2422 5.13467C21.9581 5.76114 25.001 8.08805 25.717 9.78848C25.2695 10.057 24.822 10.3255 24.3745 10.8624C22.8531 9.43049 21.0632 10.4149 21.0632 10.4149C21.0632 10.4149 22.6741 10.057 24.0165 11.5784C22.2266 11.0414 21.3316 11.6679 21.3316 11.6679C21.3316 11.6679 23.5691 12.1154 23.4796 12.2944C22.9426 12.9208 22.4951 13.8158 22.1371 14.5318C20.3472 13.9053 20.0787 4.15021 21.2422 5.13467Z" fill="#FAB38E"></path><path d="M46.7503 18.6484C43.6179 15.4266 43.1704 4.23953 45.8553 2.80759C45.4973 2.18111 40.2171 1.73363 38.3376 2.18111C40.575 3.25507 41.649 13.5471 37.7112 17.843C32.1624 23.9287 24.0182 21.8703 21.5123 27.5981C19.0959 33.1468 24.0182 39.859 31.1779 39.859C35.9212 39.859 37.5322 36.8162 41.47 36.9057C45.4973 36.9952 48.7192 39.859 53.4625 39.859C60.6222 39.859 62.8596 31.7149 60.7117 26.9716C58.6533 22.3178 50.5091 22.5863 46.7503 18.6484Z" fill="#F4D49D"></path><path d="M47.0187 29.7458C47.0187 32.9677 44.4233 36.9055 41.47 36.9055C38.5166 36.9055 35.7422 33.4152 35.7422 30.1933C35.7422 26.9714 38.5166 25.271 41.47 25.271C44.4233 25.271 47.0187 26.5239 47.0187 29.7458Z" fill="#F2C28F"></path><path d="M38.2479 15.9635C37.9794 17.5744 36.7264 18.8273 35.384 18.5589C34.0415 18.3799 33.2361 16.8584 33.5046 15.158C33.7731 13.5471 35.026 12.3836 36.3684 12.5626C37.7109 12.8311 38.5164 14.3525 38.2479 15.9635Z" fill="white"></path><path d="M37.6196 16.6794C37.6196 17.6639 36.8141 18.4694 35.9192 18.4694C34.9347 18.4694 34.2188 17.6639 34.2188 16.6794C34.2188 15.695 35.0242 14.979 35.9192 14.979C36.8141 14.979 37.6196 15.7845 37.6196 16.6794Z" fill="#533639"></path><path d="M35.4727 15.7844C35.4727 16.4109 35.9201 16.8584 36.5466 16.8584C37.0836 16.8584 37.6206 16.4109 37.6206 15.7844C37.6206 15.1579 37.1731 14.7104 36.5466 14.7104C36.0096 14.7999 35.4727 15.2474 35.4727 15.7844Z" fill="white"></path><path d="M45.5866 15.9635C45.8551 17.5744 47.108 18.8273 48.4505 18.5589C49.7034 18.3799 50.5984 16.8584 50.3299 15.158C50.0614 13.5471 48.8085 12.3836 47.466 12.5626C46.1236 12.8311 45.3181 14.3525 45.5866 15.9635Z" fill="white"></path><path d="M46.125 16.6794C46.125 17.6639 46.9305 18.4694 47.8254 18.4694C48.8099 18.4694 49.5259 17.6639 49.5259 16.6794C49.5259 15.695 48.7204 14.979 47.8254 14.979C46.9305 14.979 46.125 15.7845 46.125 16.6794Z" fill="#533639"></path><path d="M48.2729 15.7844C48.2729 16.4109 47.8254 16.8584 47.199 16.8584C46.5725 16.8584 46.125 16.4109 46.125 15.7844C46.125 15.1579 46.5725 14.7104 47.199 14.7104C47.8254 14.7104 48.2729 15.2474 48.2729 15.7844Z" fill="white"></path><path d="M42.4526 34.4893C42.4526 34.7578 42.0051 34.9368 41.3786 34.9368C40.7522 34.9368 40.3047 34.7578 40.3047 34.4893C40.3047 34.3998 40.5732 32.1624 40.5732 32.1624L41.3786 30.7305L42.2736 32.2519C42.1841 32.2519 42.4526 34.3103 42.4526 34.4893Z" fill="white"></path><path d="M50.6894 28.4932C50.6894 30.9991 46.9306 35.2054 44.5142 34.4C42.1873 33.5945 41.2028 30.8201 41.2028 30.8201C41.2028 30.8201 40.6659 34.1315 37.981 34.4895C36.37 34.758 32.0742 30.1041 32.0742 28.4932C32.0742 24.1079 38.16 15.4268 41.9188 15.4268C45.6777 15.4268 50.6894 23.5709 50.6894 28.4932Z" fill="#F2C28F"></path><path d="M44.0637 25.1817C44.0637 25.8976 41.1998 28.4035 41.1998 28.4035C41.1998 28.4035 38.3359 25.8081 38.3359 25.1817C38.3359 24.4657 39.5889 23.9287 41.1998 23.9287C42.7213 24.0182 44.0637 24.5552 44.0637 25.1817Z" fill="#5B4D4D"></path><path d="M34.043 31.7152C34.043 31.7152 34.6694 32.1626 35.5644 32.7891C36.0119 33.0576 36.5489 33.5051 37.1753 33.8631C37.3543 33.9526 37.4438 34.0421 37.6228 34.1316C37.8018 34.2211 37.9808 34.3106 37.9808 34.3106C38.3388 34.3106 38.6968 34.2211 38.9653 34.0421C39.5917 33.7736 40.1287 33.2366 40.4867 32.6996C40.8447 32.1626 41.0237 31.4467 41.1132 30.9097C41.2027 30.3727 41.2922 29.9252 41.2922 29.5672C41.2922 29.2093 41.3817 29.0303 41.3817 29.0303C41.3817 29.0303 41.3817 29.2093 41.3817 29.5672C41.3817 29.9252 41.3817 30.3727 41.2922 30.9097C41.2027 31.4467 41.1132 32.1626 40.7552 32.7891C40.4867 33.4156 39.8602 34.0421 39.1443 34.4001C38.7863 34.579 38.3388 34.6685 37.9808 34.6685C37.6228 34.6685 37.5333 34.579 37.3543 34.4895C37.1753 34.4 36.9963 34.3106 36.9069 34.2211C36.2804 33.8631 35.8329 33.4156 35.3854 33.0576C34.9379 32.6996 34.6694 32.3416 34.401 32.0731C34.1325 31.8942 34.043 31.7152 34.043 31.7152Z" fill="#C49A6C"></path><path d="M49.0791 31.984C49.0791 31.984 48.9897 32.163 48.7212 32.342C48.4527 32.6105 48.1842 32.9685 47.7367 33.3264C47.2892 33.6844 46.7522 34.1319 46.0363 34.4004C45.6783 34.5794 45.3203 34.6689 44.8728 34.6689C44.6938 34.6689 44.4253 34.6689 44.2463 34.5794C44.0674 34.4899 43.8884 34.4899 43.7094 34.4004C43.3514 34.2214 42.9934 34.0424 42.7249 33.7739C42.4564 33.5054 42.1879 33.2369 42.0089 32.879C41.651 32.2525 41.472 31.5365 41.3825 30.9995C41.293 30.4626 41.293 29.9256 41.293 29.6571C41.293 29.2991 41.293 29.1201 41.293 29.1201C41.293 29.1201 41.293 29.2991 41.3825 29.6571C41.3825 30.0151 41.472 30.4626 41.5615 30.9995C41.651 31.5365 41.9194 32.163 42.2774 32.7C42.4564 32.9685 42.7249 33.2369 42.9934 33.4159C43.2619 33.6844 43.6199 33.7739 43.8884 33.9529C44.0674 34.0424 44.2463 34.0424 44.4253 34.1319C44.6043 34.2214 44.6938 34.2214 44.8728 34.2214C45.2308 34.2214 45.4993 34.1319 45.8573 34.0424C46.4838 33.7739 47.0207 33.5054 47.5577 33.1474C48.4527 32.521 49.0791 31.984 49.0791 31.984Z" fill="#C49A6C"></path><path d="M43.7981 31.8043C43.897 31.8043 43.9771 31.7241 43.9771 31.6253C43.9771 31.5264 43.897 31.4463 43.7981 31.4463C43.6993 31.4463 43.6191 31.5264 43.6191 31.6253C43.6191 31.7241 43.6993 31.8043 43.7981 31.8043Z" fill="#8B5E3C"></path><path d="M44.6932 32.3417C44.6932 32.5207 44.6037 32.6102 44.4247 32.6102C44.2457 32.6102 44.1562 32.5207 44.1562 32.3417C44.1562 32.1627 44.2457 32.0732 44.4247 32.0732C44.6037 32.0732 44.6932 32.1627 44.6932 32.3417Z" fill="#8B5E3C"></path><path d="M44.7818 31.6253C44.7818 31.7148 44.6923 31.8043 44.6028 31.8043C44.5133 31.8043 44.4238 31.7148 44.4238 31.6253C44.4238 31.5358 44.5133 31.4463 44.6028 31.4463C44.6923 31.5358 44.7818 31.5358 44.7818 31.6253Z" fill="#8B5E3C"></path><path d="M44.3352 31.0885C44.3352 31.178 44.3352 31.178 44.2457 31.178C44.1562 31.178 44.1562 31.0885 44.1562 31.0885C44.1562 30.999 44.1562 30.999 44.2457 30.999C44.3352 30.9095 44.3352 30.999 44.3352 31.0885Z" fill="#8B5E3C"></path><path d="M45.3189 31.2679C45.3189 31.3574 45.2294 31.4469 45.1399 31.4469C45.0504 31.4469 44.9609 31.3574 44.9609 31.2679C44.9609 31.1784 45.0504 31.0889 45.1399 31.0889C45.2294 31.1784 45.3189 31.2679 45.3189 31.2679Z" fill="#8B5E3C"></path><path d="M45.4986 32.1624C45.4986 32.2519 45.4091 32.3414 45.3196 32.3414C45.2301 32.3414 45.1406 32.2519 45.1406 32.1624C45.1406 32.0729 45.2301 31.9834 45.3196 31.9834C45.4091 32.0729 45.4986 32.0729 45.4986 32.1624Z" fill="#8B5E3C"></path><path d="M37.9805 31.9834C38.07 32.0729 38.07 32.1624 37.9805 32.1624C37.891 32.2519 37.8015 32.2519 37.8015 32.1624C37.712 32.0729 37.712 31.9834 37.8015 31.9834C37.8015 31.9834 37.891 31.9834 37.9805 31.9834Z" fill="#8B5E3C"></path><path d="M38.9642 31.8943C39.0537 31.9838 39.0537 32.1628 38.9642 32.2523C38.8747 32.3417 38.6957 32.3417 38.6062 32.2523C38.5167 32.1628 38.5167 31.9838 38.6062 31.8943C38.6957 31.8048 38.8747 31.8048 38.9642 31.8943Z" fill="#8B5E3C"></path><path d="M38.5176 31.447C38.6071 31.5365 38.6071 31.626 38.5176 31.626C38.4281 31.7155 38.3386 31.7155 38.3386 31.626C38.2491 31.5365 38.2491 31.447 38.3386 31.447C38.4281 31.3575 38.5176 31.3575 38.5176 31.447Z" fill="#8B5E3C"></path><path d="M37.802 31.2676C37.802 31.2676 37.802 31.3571 37.802 31.4466C37.802 31.4466 37.7125 31.4466 37.623 31.4466C37.623 31.4466 37.623 31.3571 37.623 31.2676C37.7125 31.2676 37.802 31.2676 37.802 31.2676Z" fill="#8B5E3C"></path><path d="M38.6953 30.7305C38.7848 30.82 38.7848 30.9095 38.6953 30.9095C38.6058 30.999 38.5163 30.999 38.5163 30.9095C38.4268 30.82 38.4268 30.7305 38.5163 30.7305C38.6058 30.7305 38.6058 30.7305 38.6953 30.7305Z" fill="#8B5E3C"></path><path d="M39.5016 31.2673C39.5911 31.3568 39.5911 31.4463 39.5016 31.5358C39.4121 31.6253 39.3226 31.6253 39.2331 31.5358C39.1436 31.4463 39.1436 31.3568 39.2331 31.2673C39.3226 31.1778 39.4121 31.1778 39.5016 31.2673Z" fill="#8B5E3C"></path><path d="M43.0815 25.1818C43.0815 25.5398 42.634 25.8083 42.0075 25.8083C41.3811 25.8083 40.9336 25.5398 40.9336 25.1818C40.9336 24.8238 41.3811 24.4658 42.0075 24.4658C42.5445 24.4658 43.0815 24.8238 43.0815 25.1818Z" fill="white"></path><path d="M42.5448 38.7848C43.0818 39.4113 42.1868 41.0222 40.7549 42.2751C39.3229 43.5281 35.5641 44.2441 34.9376 43.6176C34.4006 42.9911 36.2801 39.9482 37.712 38.6058C39.1439 37.3529 41.9183 38.1583 42.5448 38.7848Z" fill="#FAB38E"></path><path d="M37.3538 43.7074C37.3538 43.7074 30.1046 50.3301 26.5247 50.3301C22.8554 50.3301 19.8125 45.4973 19.8125 41.9174C19.8125 38.3376 24.0188 36.7267 26.1667 37.9796C32.2525 41.3805 34.8479 42.3649 35.3849 41.5595C35.9218 40.8435 37.3538 43.7074 37.3538 43.7074Z" fill="#603913"></path><path d="M39.4114 39.4114C38.8744 40.0379 39.7694 41.6489 41.2013 42.9018C42.6333 44.1548 46.3921 44.8707 47.0186 44.3337C47.5556 43.7073 45.6762 40.6644 44.2442 39.322C42.8123 38.069 39.9484 38.8745 39.4114 39.4114Z" fill="#FAB38E"></path><path d="M44.5137 44.3342C44.5137 44.3342 51.7629 50.9569 55.3427 50.9569C59.0121 50.9569 62.0549 46.1241 62.0549 42.5443C62.0549 38.9644 57.8486 37.443 55.7007 38.6064C49.615 42.0073 47.0196 42.9917 46.4826 42.1863C46.0351 41.4703 44.5137 44.3342 44.5137 44.3342Z" fill="#603913"></path><path d="M58.2954 75.926C58.2954 75.926 64.9181 73.5991 65.9921 70.1088C67.6925 64.8285 65.6341 57.5793 63.0387 55.1629C60.4433 52.7465 56.595 62.4121 55.9685 64.8285C54.3576 71.6302 51.4937 76.105 50.5987 75.926C49.7933 75.8365 58.2954 75.926 58.2954 75.926Z" fill="#603913"></path><path d="M50.0625 75.7469C50.0625 76.5524 52.1209 76.9999 54.0898 76.9999C55.9693 76.9999 59.4596 76.5524 59.4596 75.7469C59.4596 73.062 55.9693 72.4355 54.0898 72.4355C52.1209 72.4355 50.0625 74.9414 50.0625 75.7469Z" fill="#FAB38E"></path><path d="M22.3177 75.3889C22.3177 75.3889 15.695 73.062 14.621 69.5717C12.9206 64.2914 14.979 57.0422 17.5744 54.6258C20.1698 52.2094 24.0181 61.875 24.6446 64.2914C26.2555 71.0931 29.1194 75.5679 30.0144 75.3889C30.8198 75.2994 22.3177 75.3889 22.3177 75.3889Z" fill="#603913"></path><path d="M30.5514 75.2098C30.5514 76.0153 28.493 76.4627 26.5241 76.4627C24.6447 76.4627 21.1543 76.0153 21.1543 75.2098C21.1543 72.5249 24.6447 71.8984 26.5241 71.8984C28.493 71.9879 30.6409 74.4043 30.5514 75.2098Z" fill="#FAB38E"></path></svg>